ply
format ascii 1.0
comment VCGLIB generated
element vertex 81
property float x
property float y
property float z
property float nx
property float ny
property float nz
property float texture_u
property float texture_v
element face 128
property list uchar int vertex_indices
end_header
-3 0 6 0 -1 0 0.000000 0.000000
3 0 6 0 -1 0 1.000000 0.000000
-3 0 0 0 -1 0 0.000000 1.000000
3 0 0 0 -1 0 1.000000 1.000000
0 0 0 0 -1 0 0.500000 1.000000
0 0 3 0 -1 0 0.500000 0.500000
-3 0 3 0 -1 0 0.000000 0.500000
3 0 3 0 -1 0 1.000000 0.500000
0 0 6 0 -1 0 0.500000 0.000000
0 0 1.5 0 -1 0 0.500000 0.750000
-1.5 0 3 0 -1 0 0.250000 0.500000
-1.5 0 1.5 0 -1 0 0.250000 0.750000
1.5 0 3 0 -1 0 0.750000 0.500000
1.5 0 4.5 0 -1 0 0.750000 0.250000
0 0 4.5 0 -1 0 0.500000 0.250000
-1.5 0 0 0 -1 0 0.250000 1.000000
-3 0 1.5 0 -1 0 0.000000 0.750000
1.5 0 0 0 -1 0 0.750000 1.000000
1.5 0 1.5 0 -1 0 0.750000 0.750000
-1.5 0 4.5 0 -1 0 0.250000 0.250000
-3 0 4.5 0 -1 0 0.000000 0.250000
-1.5 0 6 0 -1 0 0.250000 0.000000
3 0 1.5 0 -1 0 1.000000 0.750000
3 0 4.5 0 -1 0 1.000000 0.250000
1.5 0 6 0 -1 0 0.750000 0.000000
-0.75 0 2.25 0 -1 0 0.375000 0.625000
-1.5 0 2.25 0 -1 0 0.250000 0.625000
-0.75 0 1.5 0 -1 0 0.375000 0.750000
1.5 0 3.75 0 -1 0 0.750000 0.375000
0.75 0 4.5 0 -1 0 0.625000 0.250000
0.75 0 3.75 0 -1 0 0.625000 0.375000
-1.5 0 0.75 0 -1 0 0.250000 0.875000
-2.25 0 1.5 0 -1 0 0.125000 0.750000
-2.25 0 0.75 0 -1 0 0.125000 0.875000
1.5 0 0.75 0 -1 0 0.750000 0.875000
0.75 0 1.5 0 -1 0 0.625000 0.750000
0.75 0 0.75 0 -1 0 0.625000 0.875000
-1.5 0 3.75 0 -1 0 0.250000 0.375000
-2.25 0 4.5 0 -1 0 0.125000 0.250000
-2.25 0 3.75 0 -1 0 0.125000 0.375000
-0.75 0 4.5 0 -1 0 0.375000 0.250000
-0.75 0 5.25 0 -1 0 0.375000 0.125000
-1.5 0 5.25 0 -1 0 0.250000 0.125000
2.25 0 1.5 0 -1 0 0.875000 0.750000
2.25 0 2.25 0 -1 0 0.875000 0.625000
1.5 0 2.25 0 -1 0 0.750000 0.625000
2.25 0 4.5 0 -1 0 0.875000 0.250000
2.25 0 5.25 0 -1 0 0.875000 0.125000
1.5 0 5.25 0 -1 0 0.750000 0.125000
0 0 0.75 0 -1 0 0.500000 0.875000
-0.75 0 0.75 0 -1 0 0.375000 0.875000
0 0 2.25 0 -1 0 0.500000 0.625000
-0.75 0 3 0 -1 0 0.375000 0.500000
-2.25 0 3 0 -1 0 0.125000 0.500000
-2.25 0 2.25 0 -1 0 0.125000 0.625000
0.75 0 3 0 -1 0 0.625000 0.500000
0 0 3.75 0 -1 0 0.500000 0.375000
2.25 0 3 0 -1 0 0.875000 0.500000
2.25 0 3.75 0 -1 0 0.875000 0.375000
0.75 0 5.25 0 -1 0 0.625000 0.125000
0 0 5.25 0 -1 0 0.500000 0.125000
-2.25 0 0 0 -1 0 0.125000 1.000000
-3 0 0.75 0 -1 0 0.000000 0.875000
-0.75 0 0 0 -1 0 0.375000 1.000000
-3 0 2.25 0 -1 0 0.000000 0.625000
0.75 0 0 0 -1 0 0.625000 1.000000
2.25 0 0 0 -1 0 0.875000 1.000000
2.25 0 0.75 0 -1 0 0.875000 0.875000
0.75 0 2.25 0 -1 0 0.625000 0.625000
-3 0 3.75 0 -1 0 0.000000 0.375000
-0.75 0 3.75 0 -1 0 0.375000 0.375000
-2.25 0 5.25 0 -1 0 0.125000 0.125000
-3 0 5.25 0 -1 0 0.000000 0.125000
-2.25 0 6 0 -1 0 0.125000 0.000000
-0.75 0 6 0 -1 0 0.375000 0.000000
3 0 0.75 0 -1 0 1.000000 0.875000
3 0 2.25 0 -1 0 1.000000 0.625000
0.75 0 6 0 -1 0 0.625000 0.000000
3 0 3.75 0 -1 0 1.000000 0.375000
3 0 5.25 0 -1 0 1.000000 0.125000
2.25 0 6 0 -1 0 0.875000 0.000000
3 25 26 27 
3 28 29 30 
3 31 32 33 
3 34 35 36 
3 37 38 39 
3 40 41 42 
3 43 44 45 
3 46 47 48 
3 49 27 50 
3 51 52 25 
3 26 53 54 
3 55 30 56 
3 57 58 28 
3 29 59 60 
3 61 33 62 
3 63 50 31 
3 32 54 64 
3 65 36 49 
3 66 67 34 
3 35 68 51 
3 53 39 69 
3 52 70 37 
3 38 71 72 
3 71 42 73 
3 70 56 40 
3 41 60 74 
3 68 45 55 
3 67 75 43 
3 44 76 57 
3 59 48 77 
3 58 78 46 
3 47 79 80 
3 9 25 27 
3 25 10 26 
3 27 26 11 
3 12 28 30 
3 28 13 29 
3 30 29 14 
3 15 31 33 
3 31 11 32 
3 33 32 16 
3 17 34 36 
3 34 18 35 
3 36 35 9 
3 10 37 39 
3 37 19 38 
3 39 38 20 
3 19 40 42 
3 40 14 41 
3 42 41 21 
3 18 43 45 
3 43 22 44 
3 45 44 12 
3 13 46 48 
3 46 23 47 
3 48 47 24 
3 4 49 50 
3 49 9 27 
3 50 27 11 
3 9 51 25 
3 51 5 52 
3 25 52 10 
3 11 26 54 
3 26 10 53 
3 54 53 6 
3 5 55 56 
3 55 12 30 
3 56 30 14 
3 12 57 28 
3 57 7 58 
3 28 58 13 
3 14 29 60 
3 29 13 59 
3 60 59 8 
3 2 61 62 
3 61 15 33 
3 62 33 16 
3 15 63 31 
3 63 4 50 
3 31 50 11 
3 16 32 64 
3 32 11 54 
3 64 54 6 
3 4 65 49 
3 65 17 36 
3 49 36 9 
3 17 66 34 
3 66 3 67 
3 34 67 18 
3 9 35 51 
3 35 18 68 
3 51 68 5 
3 6 53 69 
3 53 10 39 
3 69 39 20 
3 10 52 37 
3 52 5 70 
3 37 70 19 
3 20 38 72 
3 38 19 71 
3 72 71 0 
3 0 71 73 
3 71 19 42 
3 73 42 21 
3 19 70 40 
3 70 5 56 
3 40 56 14 
3 21 41 74 
3 41 14 60 
3 74 60 8 
3 5 68 55 
3 68 18 45 
3 55 45 12 
3 18 67 43 
3 67 3 75 
3 43 75 22 
3 12 44 57 
3 44 22 76 
3 57 76 7 
3 8 59 77 
3 59 13 48 
3 77 48 24 
3 13 58 46 
3 58 7 78 
3 46 78 23 
3 24 47 80 
3 47 23 79 
3 80 79 1 
