ply
format ascii 1.0
comment VCGLIB generated
element vertex 100
property float x
property float y
property float z
property float nx
property float ny
property float nz
property float texture_u
property float texture_v
element face 162
property list uchar int vertex_indices
end_header
-3 -1.311343e-07 0 0 399.9999 -1.748455e-05 0.500000 -0.500000
-2.333333 -1.311343e-07 0 0 399.9999 -1.748455e-05 0.388889 -0.500000
-1.666667 -1.311342e-07 0 7.275958e-12 399.9999 -1.748455e-05 0.277778 -0.500000
-1 -1.311341e-07 0 0 399.9999 -1.748455e-05 0.166667 -0.500000
-0.3333333 -1.311342e-07 0 0 399.9999 -1.748455e-05 0.055556 -0.500000
0.3333333 -1.311342e-07 0 7.275958e-12 399.9999 -1.748455e-05 -0.055556 -0.500000
1 -1.311342e-07 0 -7.275958e-12 399.9999 -1.748455e-05 -0.166667 -0.500000
1.666667 -1.311341e-07 0 0 399.9999 -1.748455e-05 -0.277778 -0.500000
2.333333 -1.311341e-07 0 0 399.9999 -1.748455e-05 -0.388889 -0.500000
3 -1.311341e-07 0 0 399.9999 -1.748455e-05 -0.500000 -0.500000
-3 -1.019932e-07 0.6666666 0 399.9999 -1.748455e-05 0.500000 -0.388889
-2.333333 -1.019935e-07 0.6666666 0 399.9999 -1.748455e-05 0.388889 -0.388889
-1.666667 -1.019933e-07 0.6666666 0 399.9999 -1.748455e-05 0.277778 -0.388889
-1 -1.019932e-07 0.6666666 0 399.9999 -1.748455e-05 0.166667 -0.388889
-0.3333333 -1.019932e-07 0.6666666 0 399.9999 -1.748455e-05 0.055556 -0.388889
0.3333333 -1.019933e-07 0.6666666 7.275958e-12 399.9999 -1.748455e-05 -0.055556 -0.388889
1 -1.019933e-07 0.6666666 -7.275958e-12 399.9999 -1.748455e-05 -0.166667 -0.388889
1.666667 -1.019932e-07 0.6666666 -7.275958e-12 399.9999 -1.748455e-05 -0.277778 -0.388889
2.333333 -1.019932e-07 0.6666666 0 399.9999 -1.748455e-05 -0.388889 -0.388889
3 -1.019932e-07 0.6666666 0 399.9999 -1.748455e-05 -0.500000 -0.388889
-3 -7.285243e-08 1.333333 0 399.9999 -1.748455e-05 0.500000 -0.277778
-2.333333 -7.28524e-08 1.333333 7.275958e-12 399.9999 -1.748455e-05 0.388889 -0.277778
-1.666667 -7.285237e-08 1.333333 7.275958e-12 399.9999 -1.748455e-05 0.277778 -0.277778
-1 -7.285229e-08 1.333333 0 399.9999 -1.748455e-05 0.166667 -0.277778
-0.3333333 -7.28523e-08 1.333333 0 399.9999 -1.748455e-05 0.055556 -0.277778
0.3333333 -7.285233e-08 1.333333 7.275958e-12 399.9999 -1.748455e-05 -0.055556 -0.277778
1 -7.285235e-08 1.333333 -7.275958e-12 399.9999 -1.748455e-05 -0.166667 -0.277778
1.666667 -7.285226e-08 1.333333 -7.275958e-12 399.9999 -1.748455e-05 -0.277778 -0.277778
2.333333 -7.285225e-08 1.333333 0 399.9999 -1.748455e-05 -0.388889 -0.277778
3 -7.285227e-08 1.333333 0 399.9999 -1.748455e-05 -0.500000 -0.277778
-3 -4.371131e-08 2 0 399.9999 -1.748455e-05 0.500000 -0.166667
-2.333333 -4.371145e-08 2 0 399.9999 -1.748455e-05 0.388889 -0.166667
-1.666667 -4.371147e-08 2 0 399.9999 -1.748455e-05 0.277778 -0.166667
-1 -4.371136e-08 2 0 399.9999 -1.748455e-05 0.166667 -0.166667
-0.3333333 -4.371141e-08 2 0 399.9999 -1.748455e-05 0.055556 -0.166667
0.3333333 -4.37114e-08 2 7.275958e-12 399.9999 -1.748455e-05 -0.055556 -0.166667
1 -4.371142e-08 2 0 399.9999 -1.748455e-05 -0.166667 -0.166667
1.666667 -4.371134e-08 2 0 399.9999 -1.748455e-05 -0.277778 -0.166667
2.333333 -4.371135e-08 2 7.275958e-12 399.9999 -1.748455e-05 -0.388889 -0.166667
3 -4.371137e-08 2 0 399.9999 -1.748455e-05 -0.500000 -0.166667
-3 -1.45705e-08 2.666667 0 399.9999 -1.748455e-05 0.500000 -0.055556
-2.333333 -1.457053e-08 2.666667 0 399.9999 -1.748455e-05 0.388889 -0.055556
-1.666667 -1.45705e-08 2.666667 0 399.9999 -1.748455e-05 0.277778 -0.055556
-1 -1.457042e-08 2.666667 0 399.9999 -1.748455e-05 0.166667 -0.055556
-0.3333333 -1.457046e-08 2.666667 0 399.9999 -1.748455e-05 0.055556 -0.055556
0.3333333 -1.457046e-08 2.666667 7.275958e-12 399.9999 -1.748455e-05 -0.055556 -0.055556
1 -1.45705e-08 2.666667 -7.275958e-12 399.9999 -1.748455e-05 -0.166667 -0.055556
1.666667 -1.457042e-08 2.666667 -7.275958e-12 399.9999 -1.748455e-05 -0.277778 -0.055556
2.333333 -1.457042e-08 2.666667 7.275958e-12 399.9999 -1.748455e-05 -0.388889 -0.055556
3 -1.457045e-08 2.666667 7.275958e-12 399.9999 -1.748455e-05 -0.500000 -0.055556
-3 1.457045e-08 3.333333 0 399.9999 -1.748455e-05 0.500000 0.055556
-2.333333 1.457042e-08 3.333333 0 399.9999 -1.748455e-05 0.388889 0.055556
-1.666667 1.457042e-08 3.333333 0 399.9999 -1.748455e-05 0.277778 0.055556
-1 1.45705e-08 3.333333 0 399.9999 -1.748455e-05 0.166667 0.055556
-0.3333333 1.457046e-08 3.333333 0 399.9999 -1.748455e-05 0.055556 0.055556
0.3333333 1.457046e-08 3.333333 7.275958e-12 399.9999 -1.748455e-05 -0.055556 0.055556
1 1.457042e-08 3.333333 0 399.9999 -1.748455e-05 -0.166667 0.055556
1.666667 1.45705e-08 3.333333 -7.275958e-12 399.9999 -1.748455e-05 -0.277778 0.055556
2.333333 1.457053e-08 3.333333 7.275958e-12 399.9999 -1.748455e-05 -0.388889 0.055556
3 1.45705e-08 3.333333 0 399.9999 -1.748455e-05 -0.500000 0.055556
-3 4.371137e-08 3.999999 0 399.9999 -1.748455e-05 0.500000 0.166667
-2.333333 4.371135e-08 3.999999 0 399.9999 -1.748455e-05 0.388889 0.166667
-1.666667 4.371134e-08 3.999999 0 399.9999 -1.748455e-05 0.277778 0.166667
-1 4.371142e-08 3.999999 0 399.9999 -1.748455e-05 0.166667 0.166667
-0.3333333 4.37114e-08 3.999999 0 399.9999 -1.748455e-05 0.055556 0.166667
0.3333333 4.371141e-08 3.999999 7.275958e-12 399.9999 -1.748455e-05 -0.055556 0.166667
1 4.371136e-08 3.999999 0 399.9999 -1.748455e-05 -0.166667 0.166667
1.666667 4.371147e-08 3.999999 -7.275958e-12 399.9999 -1.748455e-05 -0.277778 0.166667
2.333333 4.371145e-08 3.999999 7.275958e-12 399.9999 -1.748455e-05 -0.388889 0.166667
3 4.371131e-08 3.999999 0 399.9999 -1.748455e-05 -0.500000 0.166667
-3 7.285227e-08 4.666668 0 399.9999 -1.748455e-05 0.500000 0.277778
-2.333333 7.285225e-08 4.666668 0 399.9999 -1.748455e-05 0.388889 0.277778
-1.666667 7.285226e-08 4.666668 0 399.9999 -1.748455e-05 0.277778 0.277778
-1 7.285235e-08 4.666668 0 399.9999 -1.748455e-05 0.166667 0.277778
-0.3333333 7.285233e-08 4.666668 0 399.9999 -1.748455e-05 0.055556 0.277778
0.3333333 7.28523e-08 4.666668 7.275958e-12 399.9999 -1.748455e-05 -0.055556 0.277778
1 7.285229e-08 4.666668 -7.275958e-12 399.9999 -1.748455e-05 -0.166667 0.277778
1.666667 7.285237e-08 4.666668 -7.275958e-12 399.9999 -1.748455e-05 -0.277778 0.277778
2.333333 7.28524e-08 4.666668 7.275958e-12 399.9999 -1.748455e-05 -0.388889 0.277778
3 7.285243e-08 4.666668 7.275958e-12 399.9999 -1.748455e-05 -0.500000 0.277778
-3 1.019932e-07 5.333334 0 399.9999 -1.748455e-05 0.500000 0.388889
-2.333333 1.019932e-07 5.333334 0 399.9999 -1.748455e-05 0.388889 0.388889
-1.666667 1.019932e-07 5.333334 0 399.9999 -1.748455e-05 0.277778 0.388889
-1 1.019933e-07 5.333334 0 399.9999 -1.748455e-05 0.166667 0.388889
-0.3333333 1.019933e-07 5.333334 0 399.9999 -1.748455e-05 0.055556 0.388889
0.3333333 1.019932e-07 5.333334 7.275958e-12 399.9999 -1.748455e-05 -0.055556 0.388889
1 1.019932e-07 5.333334 -7.275958e-12 399.9999 -1.748455e-05 -0.166667 0.388889
1.666667 1.019933e-07 5.333334 -7.275958e-12 399.9999 -1.748455e-05 -0.277778 0.388889
2.333333 1.019935e-07 5.333334 7.275958e-12 399.9999 -1.748455e-05 -0.388889 0.388889
3 1.019932e-07 5.333334 7.275958e-12 399.9999 -1.748455e-05 -0.500000 0.388889
-3 1.311341e-07 6 0 399.9999 -1.748455e-05 0.500000 0.500000
-2.333333 1.311341e-07 6 0 399.9999 -1.748455e-05 0.388889 0.500000
-1.666667 1.311341e-07 6 0 399.9999 -1.748455e-05 0.277778 0.500000
-1 1.311342e-07 6 0 399.9999 -1.748455e-05 0.166667 0.500000
-0.3333333 1.311342e-07 6 0 399.9999 -1.748455e-05 0.055556 0.500000
0.3333333 1.311342e-07 6 0 399.9999 -1.748455e-05 -0.055556 0.500000
1 1.311341e-07 6 0 399.9999 -1.748455e-05 -0.166667 0.500000
1.666667 1.311342e-07 6 -7.275958e-12 399.9999 -1.748455e-05 -0.277778 0.500000
2.333333 1.311343e-07 6 7.275958e-12 399.9999 -1.748455e-05 -0.388889 0.500000
3 1.311343e-07 6 7.275958e-12 399.9999 -1.748455e-05 -0.500000 0.500000
3 11 1 0 
3 0 10 11 
3 12 2 1 
3 1 11 12 
3 13 3 2 
3 2 12 13 
3 14 4 3 
3 3 13 14 
3 15 5 4 
3 4 14 15 
3 16 6 5 
3 5 15 16 
3 17 7 6 
3 6 16 17 
3 18 8 7 
3 7 17 18 
3 19 9 8 
3 8 18 19 
3 21 11 10 
3 10 20 21 
3 22 12 11 
3 11 21 22 
3 23 13 12 
3 12 22 23 
3 24 14 13 
3 13 23 24 
3 25 15 14 
3 14 24 25 
3 26 16 15 
3 15 25 26 
3 27 17 16 
3 16 26 27 
3 28 18 17 
3 17 27 28 
3 29 19 18 
3 18 28 29 
3 31 21 20 
3 20 30 31 
3 32 22 21 
3 21 31 32 
3 33 23 22 
3 22 32 33 
3 34 24 23 
3 23 33 34 
3 35 25 24 
3 24 34 35 
3 36 26 25 
3 25 35 36 
3 37 27 26 
3 26 36 37 
3 38 28 27 
3 27 37 38 
3 39 29 28 
3 28 38 39 
3 41 31 30 
3 30 40 41 
3 42 32 31 
3 31 41 42 
3 43 33 32 
3 32 42 43 
3 44 34 33 
3 33 43 44 
3 45 35 34 
3 34 44 45 
3 46 36 35 
3 35 45 46 
3 47 37 36 
3 36 46 47 
3 48 38 37 
3 37 47 48 
3 49 39 38 
3 38 48 49 
3 51 41 40 
3 40 50 51 
3 52 42 41 
3 41 51 52 
3 53 43 42 
3 42 52 53 
3 54 44 43 
3 43 53 54 
3 55 45 44 
3 44 54 55 
3 56 46 45 
3 45 55 56 
3 57 47 46 
3 46 56 57 
3 58 48 47 
3 47 57 58 
3 59 49 48 
3 48 58 59 
3 61 51 50 
3 50 60 61 
3 62 52 51 
3 51 61 62 
3 63 53 52 
3 52 62 63 
3 64 54 53 
3 53 63 64 
3 65 55 54 
3 54 64 65 
3 66 56 55 
3 55 65 66 
3 67 57 56 
3 56 66 67 
3 68 58 57 
3 57 67 68 
3 69 59 58 
3 58 68 69 
3 71 61 60 
3 60 70 71 
3 72 62 61 
3 61 71 72 
3 73 63 62 
3 62 72 73 
3 74 64 63 
3 63 73 74 
3 75 65 64 
3 64 74 75 
3 76 66 65 
3 65 75 76 
3 77 67 66 
3 66 76 77 
3 78 68 67 
3 67 77 78 
3 79 69 68 
3 68 78 79 
3 81 71 70 
3 70 80 81 
3 82 72 71 
3 71 81 82 
3 83 73 72 
3 72 82 83 
3 84 74 73 
3 73 83 84 
3 85 75 74 
3 74 84 85 
3 86 76 75 
3 75 85 86 
3 87 77 76 
3 76 86 87 
3 88 78 77 
3 77 87 88 
3 89 79 78 
3 78 88 89 
3 91 81 80 
3 80 90 91 
3 92 82 81 
3 81 91 92 
3 93 83 82 
3 82 92 93 
3 94 84 83 
3 83 93 94 
3 95 85 84 
3 84 94 95 
3 96 86 85 
3 85 95 96 
3 97 87 86 
3 86 96 97 
3 98 88 87 
3 87 97 98 
3 99 89 88 
3 88 98 99 
