ply
format ascii 1.0
comment VCGLIB generated
element vertex 25
property float x
property float y
property float z
property float nx
property float ny
property float nz
property float texture_u
property float texture_v
element face 32
property list uchar int vertex_indices
end_header
-3 0 0 0 1.570796 0 -3.000000 0.000000
3 0 0 0 1.570796 0 3.000000 0.000000
-3 0 6 0 1.570796 0 -3.000000 0.000000
3 0 6 0 1.570796 0 3.000000 0.000000
0 0 0 0 3.141593 0 0.000000 0.000000
0 0 3 0 6.283185 0 0.000000 0.000000
-3 0 3 0 3.141593 0 -3.000000 0.000000
3 0 3 0 3.141593 0 3.000000 0.000000
0 0 6 0 3.141593 0 0.000000 0.000000
0 0 1.5 0 6.283185 0 0.000000 0.000000
-1.5 0 3 0 6.283185 0 -1.500000 0.000000
-1.5 0 1.5 0 6.283185 0 -1.500000 0.000000
1.5 0 3 0 6.283185 0 1.500000 0.000000
1.5 0 4.5 0 6.283185 0 1.500000 0.000000
0 0 4.5 0 6.283185 0 0.000000 0.000000
-1.5 0 0 0 3.141593 0 -1.500000 0.000000
-3 0 1.5 0 3.141593 0 -3.000000 0.000000
1.5 0 0 0 3.141593 0 1.500000 0.000000
1.5 0 1.5 0 6.283185 0 1.500000 0.000000
-1.5 0 4.5 0 6.283185 0 -1.500000 0.000000
-3 0 4.5 0 3.141593 0 -3.000000 0.000000
-1.5 0 6 0 3.141593 0 -1.500000 0.000000
3 0 1.5 0 3.141593 0 3.000000 0.000000
3 0 4.5 0 3.141593 0 3.000000 0.000000
1.5 0 6 0 3.141593 0 1.500000 0.000000
3 10 9 11 
3 13 12 14 
3 11 15 16 
3 18 17 9 
3 19 10 20 
3 14 19 21 
3 22 18 12 
3 23 13 24 
3 9 4 11 
3 5 9 10 
3 10 11 6 
3 12 5 14 
3 7 12 13 
3 13 14 8 
3 15 0 16 
3 4 15 11 
3 11 16 6 
3 17 4 9 
3 1 17 18 
3 18 9 5 
3 10 6 20 
3 5 10 19 
3 19 20 2 
3 19 2 21 
3 5 19 14 
3 14 21 8 
3 18 5 12 
3 1 18 22 
3 22 12 7 
3 13 8 24 
3 7 13 23 
3 23 24 3 
